# Blender 4.3.0
# www.blender.org
mtllib key.mtl
o Cube
v 1.000000 1.000000 -1.000000
v 1.000000 -1.000000 -1.000000
v 1.000000 1.000000 1.000000
v 1.000000 -1.000000 1.000000
v -1.000000 1.000000 -1.000000
v -1.000000 -1.000000 -1.000000
v -1.000000 1.000000 1.000000
v -1.000000 -1.000000 1.000000
vn -0.0000 1.0000 -0.0000
vn -0.0000 -0.0000 1.0000
vn -1.0000 -0.0000 -0.0000
vn -0.0000 -1.0000 -0.0000
vn 1.0000 -0.0000 -0.0000
vn -0.0000 -0.0000 -1.0000
vt 0.625000 0.500000
vt 0.875000 0.500000
vt 0.875000 0.750000
vt 0.625000 0.750000
vt 0.375000 0.750000
vt 0.625000 1.000000
vt 0.375000 1.000000
vt 0.375000 0.000000
vt 0.625000 0.000000
vt 0.625000 0.250000
vt 0.375000 0.250000
vt 0.125000 0.500000
vt 0.375000 0.500000
vt 0.125000 0.750000
s 0
usemtl Material
f 1/1/1 5/2/1 7/3/1 3/4/1
f 4/5/2 3/4/2 7/6/2 8/7/2
f 8/8/3 7/9/3 5/10/3 6/11/3
f 6/12/4 2/13/4 4/5/4 8/14/4
f 2/13/5 1/1/5 3/4/5 4/5/5
f 6/11/6 5/10/6 1/1/6 2/13/6
o Object_2
v 10.461600 -0.000000 -3.399200
v 8.899200 -0.000001 -6.465601
v 8.899200 4.000000 -6.465601
v 10.461600 4.000000 -3.399201
v 8.899200 -0.000001 -6.465601
v 6.465600 -0.000001 -8.899201
v 6.465600 3.999999 -8.899202
v 8.899200 4.000000 -6.465601
v 6.465600 -0.000001 -8.899201
v 3.399200 -0.000001 -10.461601
v 3.399200 3.999999 -10.461602
v 6.465600 3.999999 -8.899202
v 3.399200 -0.000001 -10.461601
v 0.000000 -0.000001 -11.000001
v 0.000000 3.999999 -11.000002
v 3.399200 3.999999 -10.461602
v 0.000000 -0.000001 -11.000001
v -3.399200 -0.000001 -10.461601
v -3.399200 3.999999 -10.461602
v 0.000000 3.999999 -11.000002
v -3.399200 -0.000001 -10.461601
v -6.465600 -0.000001 -8.899201
v -6.465600 3.999999 -8.899202
v -3.399200 3.999999 -10.461602
v -6.465600 -0.000001 -8.899201
v -8.899200 -0.000001 -6.465601
v -8.899200 4.000000 -6.465601
v -6.465600 3.999999 -8.899202
v -8.899200 -0.000001 -6.465601
v -10.461600 -0.000000 -3.399200
v -10.461600 4.000000 -3.399201
v -8.899200 4.000000 -6.465601
v -10.461600 -0.000000 -3.399200
v -11.000000 0.000000 0.000000
v -11.000000 4.000000 -0.000001
v -10.461600 4.000000 -3.399201
v -11.000000 0.000000 0.000000
v -10.461600 0.000000 3.399200
v -10.461600 4.000001 3.399200
v -11.000000 4.000000 -0.000001
v -10.461600 0.000000 3.399200
v -8.899200 0.000001 6.465601
v -8.899200 4.000001 6.465600
v -10.461600 4.000001 3.399200
v -8.899200 0.000001 6.465601
v -6.465600 0.000001 8.899201
v -6.465600 4.000002 8.899200
v -8.899200 4.000001 6.465600
v -6.465600 0.000001 8.899201
v -3.399200 0.000001 10.461601
v -3.399200 4.000002 10.461600
v -6.465600 4.000002 8.899200
v -3.399200 0.000001 10.461601
v 0.000000 0.000001 11.000001
v 0.000000 4.000002 11.000000
v -3.399200 4.000002 10.461600
v 0.000000 0.000001 11.000001
v 3.399200 0.000001 10.461601
v 3.399200 4.000002 10.461600
v 0.000000 4.000002 11.000000
v 3.399200 0.000001 10.461601
v 6.465600 0.000001 8.899201
v 6.465600 4.000002 8.899200
v 3.399200 4.000002 10.461600
v 6.465600 0.000001 8.899201
v 8.899200 0.000001 6.465601
v 8.899200 4.000001 6.465600
v 6.465600 4.000002 8.899200
v 8.899200 0.000001 6.465601
v 10.461600 0.000000 3.399200
v 10.461600 4.000001 3.399200
v 8.899200 4.000001 6.465600
v 10.461600 0.000000 3.399200
v 11.000000 0.000000 0.000000
v 11.000000 4.000000 -0.000001
v 10.461600 4.000001 3.399200
v 8.899200 4.000001 6.465600
v 10.461600 4.000001 3.399200
v 11.000000 4.000000 -0.000001
v 6.465600 4.000002 8.899200
v 3.399200 4.000002 10.461600
v 0.000000 4.000002 11.000000
v -3.399200 4.000002 10.461600
v -6.465600 4.000002 8.899200
v -8.899200 4.000001 6.465600
v -10.461600 4.000001 3.399200
v -11.000000 4.000000 -0.000001
v -10.461600 4.000000 -3.399201
v -11.000000 4.000000 -0.000001
v 11.000000 4.000000 -0.000001
v -8.899200 4.000000 -6.465601
v -10.461600 4.000000 -3.399201
v 11.000000 4.000000 -0.000001
v -6.465600 3.999999 -8.899202
v -3.399200 3.999999 -10.461602
v 0.000000 3.999999 -11.000002
v 3.399200 3.999999 -10.461602
v 0.000000 3.999999 -11.000002
v 6.465600 3.999999 -8.899202
v 8.899200 4.000000 -6.465601
v 10.461600 4.000000 -3.399201
v 1.100000 11.000002 7.562500
v 1.100000 11.000000 -7.562502
v -1.100000 11.000000 -7.562502
v -1.100000 11.000002 7.562500
v 1.833300 1.999999 -10.083301
v 1.833300 2.000002 10.083301
v -1.833300 2.000002 10.083301
v -1.833300 1.999999 -10.083301
v 1.833300 1.999999 -10.083301
v -1.833300 2.000002 10.083301
v -1.833300 2.000002 10.083301
v 1.833300 2.000002 10.083301
v 1.100000 11.000002 7.562500
v -1.100000 11.000002 7.562500
v -1.833300 2.000002 10.083301
v 1.100000 11.000002 7.562500
v 1.833300 1.999999 -10.083301
v -1.833300 1.999999 -10.083301
v -1.100000 11.000000 -7.562502
v 1.100000 11.000000 -7.562502
v 1.833300 1.999999 -10.083301
v -1.100000 11.000000 -7.562502
v -1.100000 11.000000 -7.562502
v -1.833300 1.999999 -10.083301
v -1.833300 2.000002 10.083301
v -1.100000 11.000002 7.562500
v -1.100000 11.000000 -7.562502
v -1.833300 2.000002 10.083301
v 1.833300 1.999999 -10.083301
v 1.100000 11.000000 -7.562502
v 1.100000 11.000002 7.562500
v 1.833300 2.000002 10.083301
v 1.833300 1.999999 -10.083301
v 1.100000 11.000002 7.562500
v 11.000000 0.000000 0.000000
v 10.461600 -0.000000 -3.399200
v 10.461600 4.000000 -3.399201
v 11.000000 4.000000 -0.000001
vn 0.8910 -0.0000 -0.4540
vn 0.7071 -0.0000 -0.7071
vn 0.4540 -0.0000 -0.8910
vn 0.1564 -0.0000 -0.9877
vn -0.1564 -0.0000 -0.9877
vn -0.4540 -0.0000 -0.8910
vn -0.7071 -0.0000 -0.7071
vn -0.8910 -0.0000 -0.4540
vn -0.9877 -0.0000 -0.1564
vn -0.9877 -0.0000 0.1564
vn -0.8910 -0.0000 0.4540
vn -0.7071 -0.0000 0.7071
vn -0.4540 -0.0000 0.8910
vn -0.1564 -0.0000 0.9877
vn 0.1564 -0.0000 0.9877
vn 0.4540 -0.0000 0.8910
vn 0.7071 -0.0000 0.7071
vn 0.8910 -0.0000 0.4540
vn 0.9877 -0.0000 0.1564
vn -0.0000 1.0000 -0.0000
vn -0.0000 -1.0000 -0.0000
vn -0.0000 0.2697 0.9629
vn -0.0000 0.2697 -0.9629
vn -0.9967 0.0812 -0.0000
vn 0.9967 0.0812 -0.0000
vn 0.9877 -0.0000 -0.1564
vt 1.000000 -0.443700
vt 1.000000 -0.491700
vt 0.937500 -0.491700
vt 0.937500 -0.443700
vt 1.000000 -0.251600
vt 1.000000 -0.289600
vt 0.937500 -0.289600
vt 0.937500 -0.251600
vt 1.000000 -0.337500
vt 0.937500 -0.337500
vt 1.000000 -0.390600
vt 0.937500 -0.390600
vt 1.000000 -0.529700
vt 0.937500 -0.529700
vt 0.357800 -0.117700
vt 0.382200 -0.165600
vt 0.390600 -0.218800
vt 0.319800 -0.079700
vt 0.271900 -0.055300
vt 0.218800 -0.046900
vt 0.165600 -0.055300
vt 0.117700 -0.079700
vt 0.079700 -0.117700
vt 0.055300 -0.165600
vt 0.046900 -0.218800
vt 0.055300 -0.271900
vt 0.079700 -0.319800
vt 0.117700 -0.357800
vt 0.165600 -0.382200
vt 0.218800 -0.390600
vt 0.271900 -0.382200
vt 0.319800 -0.357800
vt 0.357800 -0.319800
vt 0.382200 -0.271900
vt 0.353500 -0.184300
vt 0.353500 -0.479700
vt 0.310500 -0.479700
vt 0.310500 -0.184300
vt 0.367800 -0.529000
vt 0.367800 -0.135100
vt 0.296200 -0.135100
vt 0.296200 -0.529000
vt 0.296200 -0.039100
vt 0.367800 -0.039100
vt 0.353500 0.136700
vt 0.310500 0.136700
vt 0.859400 -0.382100
vt 1.035200 -0.431300
vt 1.035200 -0.037400
vt 0.859400 -0.086700
vt 0.039100 -0.529000
vt -0.136700 -0.479700
vt -0.136700 -0.184300
vt 0.039100 -0.135100
s 0
usemtl material_2_1
f 9/15/7 10/16/7 11/17/7
f 12/18/7 9/15/7 11/17/7
f 13/19/8 14/20/8 15/21/8
f 16/22/8 13/19/8 15/21/8
f 17/20/9 18/23/9 19/24/9
f 20/21/9 17/20/9 19/24/9
f 21/23/10 22/25/10 23/26/10
f 24/24/10 21/23/10 23/26/10
f 25/25/11 26/15/11 27/18/11
f 28/26/11 25/25/11 27/18/11
f 29/15/12 30/16/12 31/17/12
f 32/18/12 29/15/12 31/17/12
f 33/16/13 34/27/13 35/28/13
f 36/17/13 33/16/13 35/28/13
f 37/16/14 38/15/14 39/18/14
f 40/17/14 37/16/14 39/18/14
f 41/15/15 42/25/15 43/26/15
f 44/18/15 41/15/15 43/26/15
f 45/25/16 46/23/16 47/24/16
f 48/26/16 45/25/16 47/24/16
f 49/23/17 50/20/17 51/21/17
f 52/24/17 49/23/17 51/21/17
f 53/27/18 54/16/18 55/17/18
f 56/28/18 53/27/18 55/17/18
f 57/16/19 58/15/19 59/18/19
f 60/17/19 57/16/19 59/18/19
f 61/15/20 62/25/20 63/26/20
f 64/18/20 61/15/20 63/26/20
f 65/25/21 66/23/21 67/24/21
f 68/26/21 65/25/21 67/24/21
f 69/23/22 70/20/22 71/21/22
f 72/24/22 69/23/22 71/21/22
f 73/20/23 74/19/23 75/22/23
f 76/21/23 73/20/23 75/22/23
f 77/20/24 78/23/24 79/24/24
f 80/21/24 77/20/24 79/24/24
f 81/23/25 82/25/25 83/26/25
f 84/24/25 81/23/25 83/26/25
f 85/29/26 86/30/26 87/31/26
f 88/32/26 85/29/26 87/31/26
f 89/33/26 88/32/26 87/31/26
f 90/34/26 89/33/26 87/31/26
f 91/35/26 90/34/26 87/31/26
f 92/36/26 91/35/26 87/31/26
f 93/37/26 92/36/26 87/31/26
f 94/38/26 93/37/26 87/31/26
f 95/39/26 94/38/26 87/31/26
f 96/40/26 97/39/26 98/31/26
f 99/41/26 100/40/26 101/31/26
f 102/42/26 99/41/26 101/31/26
f 103/43/26 102/42/26 101/31/26
f 104/44/26 103/43/26 101/31/26
f 105/45/26 106/44/26 98/31/26
f 107/46/26 105/45/26 98/31/26
f 108/47/26 107/46/26 98/31/26
f 98/31/26 109/48/26 108/47/26
f 110/49/26 111/50/26 112/51/26
f 113/52/26 110/49/26 112/51/26
f 114/53/27 115/54/27 116/55/27
f 117/56/27 118/53/27 119/55/27
f 120/57/28 121/58/28 122/59/28
f 123/60/28 124/57/28 125/59/28
f 126/58/29 127/57/29 128/60/29
f 129/59/29 130/58/29 131/60/29
f 132/61/30 133/62/30 134/63/30
f 135/64/30 136/61/30 137/63/30
f 138/65/31 139/66/31 140/67/31
f 141/68/31 142/65/31 143/67/31
f 144/25/32 145/15/32 146/18/32
f 147/26/32 144/25/32 146/18/32
o Object_3
v 0.750000 -0.000002 -16.000002
v 3.000000 -0.000001 -10.000001
v -3.000000 -0.000001 -10.000001
v -0.750000 -0.000002 -16.000002
v 0.750000 -0.000002 -16.000002
v -3.000000 -0.000001 -10.000001
v -3.000000 -0.000001 -10.000001
v 3.000000 -0.000001 -10.000001
v 3.000000 2.999999 -10.000001
v -3.000000 2.999999 -10.000001
v 0.750000 -0.000002 -16.000002
v -0.750000 -0.000002 -16.000002
v -0.750000 0.999998 -16.000002
v 0.750000 0.999998 -16.000002
v 0.750000 -0.000002 -16.000002
v -0.750000 0.999998 -16.000002
v -0.750000 0.999998 -16.000002
v -0.750000 -0.000002 -16.000002
v -3.000000 -0.000001 -10.000001
v -3.000000 2.999999 -10.000001
v -0.750000 0.999998 -16.000002
v -3.000000 -0.000001 -10.000001
v 0.750000 -0.000002 -16.000002
v 0.750000 0.999998 -16.000002
v 3.000000 2.999999 -10.000001
v 3.000000 -0.000001 -10.000001
v 0.750000 -0.000002 -16.000002
v 3.000000 2.999999 -10.000001
v 5.833600 8.000002 5.833600
v 7.622000 8.000001 3.157099
v 8.250000 8.000001 -0.000001
v 3.157100 8.000002 7.622000
v 0.000000 8.000002 8.250000
v -3.157100 8.000002 7.622000
v -5.833600 8.000002 5.833600
v -7.622000 8.000001 3.157099
v -8.250000 8.000001 -0.000001
v -7.622000 8.000001 -3.157102
v -8.250000 8.000001 -0.000001
v 8.250000 8.000001 -0.000001
v -5.833600 8.000000 -5.833601
v -7.622000 8.000001 -3.157102
v 8.250000 8.000001 -0.000001
v -3.157100 8.000000 -7.622002
v 0.000000 8.000000 -8.250002
v 3.157100 8.000000 -7.622002
v 0.000000 8.000000 -8.250002
v 5.833600 8.000000 -5.833601
v 7.622000 8.000001 -3.157102
v 7.622000 4.000000 -3.157101
v 8.250000 4.000000 -0.000001
v 7.622000 4.000001 3.157100
v 5.833600 4.000000 -5.833601
v 7.622000 4.000000 -3.157101
v 7.622000 4.000001 3.157100
v 3.157100 4.000000 -7.622001
v 0.000000 3.999999 -8.250002
v -3.157100 4.000000 -7.622001
v 0.000000 3.999999 -8.250002
v 7.622000 4.000001 3.157100
v -5.833600 4.000000 -5.833601
v -7.622000 4.000000 -3.157101
v -8.250000 4.000000 -0.000001
v -7.622000 4.000001 3.157100
v -8.250000 4.000000 -0.000001
v 7.622000 4.000001 3.157100
v -5.833600 4.000001 5.833600
v -3.157100 4.000001 7.622000
v 0.000000 4.000001 8.250000
v 3.157100 4.000001 7.622000
v 5.833600 4.000001 5.833600
v 3.157100 4.000001 7.622000
v 7.622000 4.000000 -3.157101
v 7.622000 8.000001 -3.157102
v 8.250000 8.000001 -0.000001
v 8.250000 4.000000 -0.000001
v 5.833600 4.000000 -5.833601
v 5.833600 8.000000 -5.833601
v 7.622000 8.000001 -3.157102
v 7.622000 4.000000 -3.157101
v 3.157100 4.000000 -7.622001
v 3.157100 8.000000 -7.622002
v 5.833600 8.000000 -5.833601
v 5.833600 4.000000 -5.833601
v 0.000000 3.999999 -8.250002
v 0.000000 8.000000 -8.250002
v 3.157100 8.000000 -7.622002
v 3.157100 4.000000 -7.622001
v -3.157100 4.000000 -7.622001
v -3.157100 8.000000 -7.622002
v 0.000000 8.000000 -8.250002
v 0.000000 3.999999 -8.250002
v -5.833600 4.000000 -5.833601
v -5.833600 8.000000 -5.833601
v -3.157100 8.000000 -7.622002
v -3.157100 4.000000 -7.622001
v -7.622000 4.000000 -3.157101
v -7.622000 8.000001 -3.157102
v -5.833600 8.000000 -5.833601
v -5.833600 4.000000 -5.833601
v -8.250000 4.000000 -0.000001
v -8.250000 8.000001 -0.000001
v -7.622000 8.000001 -3.157102
v -7.622000 4.000000 -3.157101
v -7.622000 4.000001 3.157100
v -7.622000 8.000001 3.157099
v -8.250000 8.000001 -0.000001
v -8.250000 4.000000 -0.000001
v -7.622000 4.000001 3.157100
v -8.250000 8.000001 -0.000001
v -5.833600 4.000001 5.833600
v -5.833600 8.000002 5.833600
v -7.622000 8.000001 3.157099
v -7.622000 4.000001 3.157100
v -5.833600 4.000001 5.833600
v -7.622000 8.000001 3.157099
v -3.157100 4.000001 7.622000
v -3.157100 8.000002 7.622000
v -5.833600 8.000002 5.833600
v -5.833600 4.000001 5.833600
v -3.157100 4.000001 7.622000
v -5.833600 8.000002 5.833600
v 0.000000 4.000001 8.250000
v 0.000000 8.000002 8.250000
v -3.157100 8.000002 7.622000
v -3.157100 4.000001 7.622000
v 0.000000 4.000001 8.250000
v -3.157100 8.000002 7.622000
v 3.157100 4.000001 7.622000
v 3.157100 8.000002 7.622000
v 0.000000 8.000002 8.250000
v 0.000000 4.000001 8.250000
v 5.833600 4.000001 5.833600
v 5.833600 8.000002 5.833600
v 3.157100 8.000002 7.622000
v 3.157100 4.000001 7.622000
v 7.622000 4.000001 3.157100
v 7.622000 8.000001 3.157099
v 5.833600 8.000002 5.833600
v 5.833600 4.000001 5.833600
v 8.250000 4.000000 -0.000001
v 8.250000 8.000001 -0.000001
v 7.622000 8.000001 3.157099
v 7.622000 4.000001 3.157100
v 3.000000 2.999999 -10.000001
v 0.750000 0.999998 -16.000002
v -0.750000 0.999998 -16.000002
v -3.000000 2.999999 -10.000001
vn -0.0000 -1.0000 -0.0000
vn -0.0000 -0.0000 1.0000
vn -0.0000 -0.0000 -1.0000
vn -0.9363 -0.0000 -0.3511
vn 0.9363 -0.0000 -0.3511
vn -0.0000 1.0000 -0.0000
vn 0.9808 -0.0000 -0.1951
vn 0.8315 -0.0000 -0.5556
vn 0.5556 -0.0000 -0.8315
vn 0.1951 -0.0000 -0.9808
vn -0.1951 -0.0000 -0.9808
vn -0.5556 -0.0000 -0.8315
vn -0.8315 -0.0000 -0.5556
vn -0.9808 -0.0000 -0.1951
vn -0.9808 -0.0000 0.1951
vn -0.8315 -0.0000 0.5556
vn -0.5556 -0.0000 0.8315
vn -0.1951 -0.0000 0.9808
vn 0.1951 -0.0000 0.9808
vn 0.5556 -0.0000 0.8315
vn 0.8315 -0.0000 0.5556
vn 0.9808 -0.0000 0.1951
vn -0.0000 0.9487 -0.3162
vt 0.014600 -0.312500
vt 0.058600 -0.195300
vt -0.058600 -0.195300
vt -0.014600 -0.312500
vt -0.058600 0.000000
vt 0.058600 0.000000
vt 0.058600 0.058600
vt -0.058600 0.058600
vt 0.014600 0.000000
vt -0.014600 0.000000
vt -0.014600 0.019500
vt 0.014600 0.019500
vt -0.019500 -0.312500
vt 0.000000 -0.312500
vt 0.000000 -0.195300
vt 0.057000 0.057000
vt 0.074400 0.030800
vt 0.080600 0.000000
vt 0.030800 0.074400
vt 0.000000 0.080600
vt -0.030800 0.074400
vt -0.057000 0.057000
vt -0.074400 0.030800
vt -0.080600 0.000000
vt -0.074400 -0.030800
vt -0.057000 -0.057000
vt -0.030800 -0.074400
vt 0.000000 -0.080600
vt 0.030800 -0.074400
vt 0.057000 -0.057000
vt 0.074400 -0.030800
vt -0.039100 -0.030800
vt -0.078100 -0.030800
vt -0.078100 0.000000
vt -0.039100 0.000000
vt -0.039100 -0.057000
vt -0.078100 -0.057000
vt 0.030800 0.039100
vt 0.030800 0.078100
vt 0.057000 0.078100
vt 0.057000 0.039100
vt 0.000000 0.039100
vt 0.000000 0.078100
vt -0.030800 0.039100
vt -0.030800 0.078100
vt -0.057000 0.039100
vt -0.057000 0.078100
vt -0.039100 0.030800
vt -0.078100 0.030800
vt -0.039100 0.057000
vt -0.078100 0.057000
s 0
usemtl material_1_0
f 148/69/33 149/70/33 150/71/33
f 151/72/33 152/69/33 153/71/33
f 154/73/34 155/74/34 156/75/34
f 157/76/34 154/73/34 156/75/34
f 158/77/35 159/78/35 160/79/35
f 161/80/35 162/77/35 163/79/35
f 164/81/36 165/82/36 166/83/36
f 167/71/36 168/81/36 169/83/36
f 170/82/37 171/81/37 172/71/37
f 173/83/37 174/82/37 175/71/37
f 176/84/38 177/85/38 178/86/38
f 179/87/38 176/84/38 178/86/38
f 180/88/38 179/87/38 178/86/38
f 181/89/38 180/88/38 178/86/38
f 182/90/38 181/89/38 178/86/38
f 183/91/38 182/90/38 178/86/38
f 184/92/38 183/91/38 178/86/38
f 185/93/38 186/92/38 187/86/38
f 188/94/38 189/93/38 190/86/38
f 191/95/38 188/94/38 190/86/38
f 192/96/38 191/95/38 190/86/38
f 193/97/38 194/96/38 187/86/38
f 195/98/38 193/97/38 187/86/38
f 187/86/38 196/99/38 195/98/38
f 197/99/33 198/86/33 199/85/33
f 200/98/33 201/99/33 202/85/33
f 203/97/33 200/98/33 202/85/33
f 204/96/33 203/97/33 202/85/33
f 205/95/33 206/96/33 207/85/33
f 208/94/33 205/95/33 207/85/33
f 209/93/33 208/94/33 207/85/33
f 210/92/33 209/93/33 207/85/33
f 211/91/33 212/92/33 213/85/33
f 214/90/33 211/91/33 213/85/33
f 215/89/33 214/90/33 213/85/33
f 216/88/33 215/89/33 213/85/33
f 217/87/33 216/88/33 213/85/33
f 199/85/33 218/84/33 219/87/33
f 220/100/39 221/101/39 222/102/39
f 223/103/39 220/100/39 222/102/39
f 224/104/40 225/105/40 226/101/40
f 227/100/40 224/104/40 226/101/40
f 228/106/41 229/107/41 230/108/41
f 231/109/41 228/106/41 230/108/41
f 232/110/42 233/111/42 234/107/42
f 235/106/42 232/110/42 234/107/42
f 236/112/43 237/113/43 238/111/43
f 239/110/43 236/112/43 238/111/43
f 240/114/44 241/115/44 242/113/44
f 243/112/44 240/114/44 242/113/44
f 244/100/45 245/101/45 246/105/45
f 247/104/45 244/100/45 246/105/45
f 248/103/46 249/102/46 250/101/46
f 251/100/46 248/103/46 250/101/46
f 252/116/47 253/117/47 254/102/47
f 255/103/47 256/116/47 257/102/47
f 258/118/48 259/119/48 260/117/48
f 261/116/48 262/118/48 263/117/48
f 264/112/49 265/113/49 266/115/49
f 267/114/49 268/112/49 269/115/49
f 270/110/50 271/111/50 272/113/50
f 273/112/50 274/110/50 275/113/50
f 276/106/51 277/107/51 278/111/51
f 279/110/51 276/106/51 278/111/51
f 280/109/52 281/108/52 282/107/52
f 283/106/52 280/109/52 282/107/52
f 284/116/53 285/117/53 286/119/53
f 287/118/53 284/116/53 286/119/53
f 288/103/54 289/102/54 290/117/54
f 291/116/54 288/103/54 290/117/54
f 292/70/55 293/69/55 294/72/55
f 295/71/55 292/70/55 294/72/55
